<?xml version="1.0" standalone="no"?>
<!DOCTYPE svg PUBLIC "-//W3C//DTD SVG 20010904//EN"
 "http://www.w3.org/TR/2001/REC-SVG-20010904/DTD/svg10.dtd">
<svg version="1.0" xmlns="http://www.w3.org/2000/svg"
 width="1200.000000pt" height="1108.000000pt" viewBox="0 0 1200.000000 1108.000000"
 preserveAspectRatio="xMidYMid meet">

<g transform="translate(0.000000,1108.000000) scale(0.100000,-0.100000)"
fill="#000000" stroke="none">
<path d="M10398 10350 c-151 -27 -263 -89 -405 -224 -24 -22 -43 -45 -43 -52
0 -6 -11 -19 -25 -28 -14 -9 -25 -24 -25 -33 0 -9 -11 -31 -26 -50 -56 -74
-84 -181 -86 -337 -1 -80 4 -128 16 -171 10 -33 21 -73 25 -90 19 -73 109
-214 189 -297 20 -21 37 -43 37 -49 0 -7 -25 -20 -55 -29 l-55 -18 -84 84
c-47 46 -88 84 -93 84 -4 0 -43 32 -85 71 -43 39 -110 94 -149 123 -39 28
-107 78 -150 111 -221 167 -406 285 -657 419 -46 24 -106 58 -133 74 -27 17
-85 45 -129 62 -44 18 -100 42 -125 55 -25 12 -65 28 -90 35 -25 7 -65 18 -90
25 -176 49 -280 73 -376 86 -71 9 -278 36 -469 60 -38 5 -77 6 -85 4 -8 -3
-40 0 -70 6 -30 5 -179 12 -330 15 -305 7 -603 -11 -785 -46 -55 -11 -169 -31
-253 -44 -84 -14 -193 -39 -241 -56 -49 -16 -96 -30 -105 -30 -16 0 -138 -45
-271 -100 -38 -16 -81 -32 -95 -35 -14 -4 -44 -18 -66 -31 -23 -13 -80 -37
-125 -54 -112 -41 -557 -264 -691 -346 -107 -66 -307 -205 -358 -249 -30 -27
-86 -71 -125 -100 -38 -29 -106 -91 -150 -138 -165 -176 -231 -250 -278 -313
-27 -36 -58 -70 -68 -77 -34 -21 -189 -248 -251 -367 -10 -19 -32 -51 -49 -70
-16 -19 -44 -61 -60 -92 -32 -64 -30 -62 -79 -48 -64 19 -190 39 -360 59 -115
14 -435 3 -580 -20 -36 -6 -87 -13 -114 -15 -173 -17 -482 -125 -523 -183 -8
-12 -46 -40 -86 -63 -40 -23 -94 -63 -122 -89 -27 -25 -63 -53 -80 -62 -51
-27 -184 -167 -268 -281 -104 -142 -164 -243 -213 -361 -44 -107 -94 -236
-105 -270 -6 -22 -17 -51 -24 -65 -7 -14 -23 -72 -35 -130 -18 -85 -23 -141
-24 -290 -1 -204 11 -281 58 -372 14 -27 26 -54 26 -60 0 -19 42 -68 58 -68
19 0 121 61 167 100 51 43 188 171 245 229 31 31 106 103 168 161 62 58 129
128 149 155 20 28 42 55 48 60 18 15 99 117 121 150 10 17 21 32 24 35 3 3 16
20 29 38 12 17 30 32 39 32 9 0 26 7 36 15 23 17 84 37 189 60 43 10 84 23 91
30 6 7 25 13 41 13 244 6 401 3 462 -8 40 -7 73 -14 73 -15 0 -1 -13 -41 -30
-88 -16 -48 -30 -99 -30 -114 0 -16 -10 -66 -21 -113 -30 -121 -39 -164 -49
-255 -10 -86 -22 -161 -40 -240 -6 -27 -10 -102 -9 -165 l1 -115 -54 -12 c-64
-14 -186 -80 -243 -132 -39 -35 -104 -156 -105 -194 0 -10 -6 -30 -14 -45 -7
-15 -16 -47 -19 -72 -3 -25 -13 -67 -21 -95 -41 -133 -91 -481 -102 -695 -11
-229 2 -597 27 -760 6 -36 14 -105 19 -155 5 -49 16 -121 24 -160 9 -38 22
-106 30 -150 8 -44 26 -114 41 -155 15 -41 35 -102 45 -136 21 -73 40 -111 93
-186 60 -87 109 -118 290 -184 108 -39 200 -61 292 -70 33 -3 63 -8 68 -11 19
-11 228 -32 400 -38 187 -7 187 -7 187 -31 0 -12 4 -34 9 -47 5 -14 19 -101
31 -193 11 -93 28 -197 36 -232 9 -34 19 -86 24 -115 4 -28 11 -60 15 -70 6
-13 -3 -27 -32 -55 -33 -31 -86 -101 -128 -170 -5 -9 -27 -43 -48 -76 -36 -58
-45 -98 -29 -123 27 -42 212 -69 457 -67 222 2 629 39 729 65 21 6 44 8 50 6
7 -3 31 3 52 13 58 26 138 126 290 365 10 16 30 51 44 77 14 26 44 80 67 121
24 41 43 80 43 86 0 16 12 14 109 -19 242 -81 636 -146 919 -151 56 0 82 -5
82 -13 0 -7 37 -86 83 -177 103 -208 127 -262 127 -288 0 -11 9 -44 20 -73 12
-29 25 -73 31 -98 19 -88 41 -216 53 -300 13 -103 29 -128 93 -146 26 -7 86
-27 133 -43 113 -40 307 -56 550 -47 205 8 265 20 341 69 61 39 69 51 69 101
0 18 4 36 9 42 6 5 21 43 34 84 26 78 58 163 81 215 13 28 35 96 86 260 26 83
57 202 70 265 43 214 44 215 70 218 14 2 45 9 70 17 25 8 92 21 150 30 58 9
115 21 128 26 13 5 35 9 49 9 15 0 40 4 57 10 17 5 65 16 106 25 78 16 113 25
215 55 33 10 78 22 100 28 95 25 281 85 290 93 5 5 19 9 31 9 13 0 26 5 29 10
9 15 25 12 32 -7 3 -9 21 -40 39 -70 18 -30 51 -97 74 -151 22 -53 47 -108 55
-122 22 -41 53 -140 64 -205 17 -98 29 -189 30 -210 0 -29 8 -72 16 -84 13
-23 138 -72 215 -86 32 -5 181 -14 320 -18 70 -2 197 10 280 27 101 21 242 57
270 70 31 14 41 48 75 266 3 14 13 77 24 140 10 63 22 138 25 165 3 28 11 79
17 115 5 36 15 99 20 140 9 72 13 112 39 405 11 129 6 617 -8 755 l-7 65 60
83 c74 103 175 250 196 288 9 16 46 80 83 142 36 63 81 147 99 188 19 41 36
72 39 69 10 -11 152 422 169 515 19 107 29 170 34 207 2 21 11 70 20 108 9 39
21 95 25 125 5 30 14 84 21 120 6 36 13 99 15 140 6 113 5 502 -1 610 -10 196
-27 407 -36 453 -5 26 -9 66 -9 88 0 22 -4 59 -10 82 -5 23 -21 107 -35 187
-30 166 -58 275 -87 340 -11 25 -38 99 -60 165 -22 66 -50 143 -63 171 -13 28
-30 73 -38 101 -8 28 -20 59 -26 69 -5 11 -42 84 -81 164 -91 184 -150 285
-227 387 -17 24 -35 52 -38 64 -4 12 -23 43 -41 69 -19 26 -34 52 -34 57 0 5
12 15 28 22 15 7 43 23 62 35 19 12 64 40 100 61 36 21 76 48 90 60 23 21 31
21 115 14 88 -8 227 2 290 20 17 5 66 15 110 21 170 26 286 66 395 135 71 46
167 143 176 180 3 13 1 53 -4 90 -16 101 -70 158 -192 202 -82 30 -202 3 -306
-70 -50 -34 -154 -62 -154 -40 0 7 18 33 40 56 42 47 85 149 114 272 23 100
16 297 -14 385 -28 84 -40 104 -91 165 -23 28 -45 59 -49 70 -10 27 -132 88
-260 129 -58 19 -122 42 -143 51 -58 24 -186 26 -309 5z m276 -491 c28 -33 32
-47 39 -122 8 -87 -40 -227 -101 -292 -15 -16 -37 -42 -49 -58 -47 -63 -92
-61 -149 6 -84 99 -106 292 -42 372 23 30 111 76 181 95 26 7 50 17 53 21 11
18 43 8 68 -22z m-9278 -2279 c13 0 24 -4 24 -8 0 -21 -217 -111 -267 -112
-12 0 -25 -5 -28 -10 -4 -6 -12 -7 -22 -1 -11 6 -21 4 -31 -6 -11 -11 -17 -11
-22 -3 -6 9 -11 7 -18 -6 -10 -18 -11 -18 -17 -2 -5 12 -14 16 -29 13 -38 -8
-179 9 -184 23 -5 16 103 66 178 81 73 16 328 40 364 35 16 -2 39 -4 52 -4z
m2214 -80 c25 -5 78 -14 117 -20 54 -7 101 -23 178 -60 58 -28 110 -48 116
-44 7 4 -5 -24 -26 -62 -21 -38 -52 -95 -69 -126 -31 -58 -50 -75 -22 -19 9
16 16 32 16 36 0 12 -51 4 -56 -10 -4 -10 -13 -13 -25 -10 -16 5 -19 1 -19
-25 0 -47 -26 -100 -48 -100 -26 0 -39 -17 -61 -81 -10 -30 -32 -81 -48 -114
-17 -33 -28 -65 -26 -72 11 -31 -219 -161 -390 -219 -62 -21 -71 -22 -84 -8
-14 13 -17 13 -29 -3 -8 -11 -13 -13 -14 -5 0 6 -8 12 -19 12 -12 0 -18 7 -17
17 0 10 -8 19 -19 21 -17 4 -18 2 -6 -12 7 -9 9 -16 3 -16 -5 0 -12 6 -15 14
-3 7 -19 15 -36 18 -17 2 -27 0 -24 -5 3 -5 -4 -6 -16 -2 -12 4 -21 2 -21 -4
0 -6 -4 -11 -10 -11 -5 0 -7 7 -3 15 4 13 -3 15 -43 14 -27 -1 -86 -1 -131 1
-70 2 -82 5 -86 21 -6 21 8 26 16 7 3 -7 6 -3 6 9 1 12 -6 26 -15 31 -9 5 -15
13 -13 18 2 5 -16 24 -40 41 -36 28 -48 32 -80 27 -33 -5 -38 -3 -51 23 -8 15
-20 33 -26 38 -14 12 -44 165 -44 223 0 79 100 212 205 272 22 12 56 32 75 43
100 57 271 108 422 126 101 12 423 12 478 1z m946 -31 c265 -47 426 -116 559
-238 28 -25 67 -60 87 -76 53 -43 53 -71 0 -101 -23 -13 -50 -24 -58 -24 -12
0 -14 -7 -10 -27 7 -34 -9 -67 -20 -40 -3 9 -16 17 -28 16 -11 0 -15 -3 -8 -6
16 -6 15 -32 -2 -39 -8 -3 -24 -1 -35 5 -18 10 -20 8 -23 -21 -2 -25 -7 -32
-20 -30 -10 2 -18 -1 -18 -6 0 -11 -40 -28 -86 -37 -18 -3 -39 -14 -49 -24
-16 -19 -47 -18 -72 1 -7 6 -20 5 -34 -2 -19 -11 -21 -10 -16 4 4 9 3 16 -2
16 -5 0 -11 -10 -14 -22 -5 -16 -9 -19 -19 -11 -16 13 -109 8 -118 -7 -7 -11
-44 -9 -56 3 -4 4 -13 2 -21 -5 -7 -6 -17 -7 -21 -3 -4 4 -1 10 6 12 25 9 11
18 -30 19 -30 1 -47 8 -59 23 -9 11 -24 21 -33 21 -14 0 -22 24 -17 53 2 11
-17 9 -24 -3 -3 -5 -1 -10 5 -10 6 0 4 -8 -5 -17 -14 -13 -21 -14 -36 -5 -15
9 -20 8 -28 -6 -10 -16 -11 -15 -12 3 -1 11 -1 25 0 31 0 5 -17 18 -38 28 -22
9 -41 24 -43 34 -2 11 -13 16 -33 17 -24 0 -31 5 -33 24 -3 19 -6 21 -13 10
-8 -12 -12 -11 -24 6 -9 11 -13 25 -11 32 3 7 -1 13 -9 13 -7 0 -16 8 -19 18
-4 10 -13 19 -21 19 -19 0 -19 -7 2 -37 l17 -25 -22 18 c-11 11 -26 16 -32 12
-11 -7 16 58 35 85 6 8 21 35 34 60 13 25 48 84 78 132 53 86 55 87 106 98
147 31 210 33 343 9z m-606 -407 c0 -5 -7 -17 -15 -28 -14 -18 -14 -17 -4 9
12 27 19 34 19 19z m507 -274 c-3 -8 -6 -5 -6 6 -1 11 2 17 5 13 3 -3 4 -12 1
-19z m-1639 -1035 c37 -9 81 -26 97 -38 17 -12 42 -25 57 -29 33 -7 249 -167
336 -248 34 -32 67 -58 71 -58 5 0 51 -53 102 -117 126 -158 150 -191 138
-195 -5 -2 3 -21 18 -43 47 -67 122 -188 144 -230 11 -22 29 -53 40 -70 10
-16 44 -82 75 -145 30 -63 73 -151 94 -195 54 -111 162 -339 192 -405 14 -30
39 -85 56 -121 16 -37 38 -93 47 -125 9 -33 25 -72 35 -89 9 -16 26 -55 35
-85 10 -30 24 -64 31 -75 20 -32 84 -229 83 -256 0 -13 -3 -18 -6 -11 -7 18
-40 15 -55 -5 -15 -20 -44 -41 -70 -49 -10 -4 -18 -10 -18 -14 0 -7 -9 -8
-210 -13 -129 -3 -177 -16 -198 -53 -6 -11 -11 9 -15 64 -3 44 -16 107 -27
139 -12 32 -28 82 -36 111 -17 64 -141 322 -155 322 -5 0 -9 -4 -9 -9 0 -21
45 -153 81 -237 21 -50 39 -101 39 -112 0 -12 10 -47 22 -79 28 -74 31 -212 6
-258 -44 -83 -141 -170 -245 -221 -23 -12 -40 -24 -37 -27 3 -3 0 -8 -7 -13
-8 -4 -10 -3 -5 4 9 15 1 15 -41 0 -20 -7 -32 -17 -29 -25 4 -8 -3 -13 -17
-13 -12 0 -35 -7 -51 -15 -32 -17 -49 -20 -26 -5 13 8 13 10 -2 10 -9 0 -19 3
-21 8 -3 4 15 7 38 7 24 0 49 5 55 11 7 7 -9 8 -52 3 -68 -8 -160 -37 -120
-38 12 -1 22 -5 22 -10 0 -13 -49 -43 -60 -36 -5 3 -23 -1 -39 -10 -33 -17
-91 -20 -91 -6 0 5 -10 12 -22 14 -20 4 -19 4 5 6 15 0 27 -3 27 -9 0 -5 15
-9 33 -9 23 1 26 3 10 6 -13 2 -23 8 -23 12 0 11 59 23 71 15 5 -3 9 0 9 5 0
18 18 12 23 -6 3 -13 5 -11 6 6 1 20 -3 22 -21 17 -45 -12 -193 -36 -257 -42
-36 -3 -75 -7 -86 -9 -24 -5 -400 -6 -430 -1 -11 1 -38 8 -60 14 -22 6 -76 16
-120 22 -69 9 -229 60 -287 91 -34 18 -102 93 -139 155 -58 93 -145 379 -165
539 -2 17 -8 59 -13 95 -42 284 -54 438 -54 730 0 316 25 653 55 712 4 9 13
51 19 92 5 42 19 101 30 133 10 31 19 67 19 80 0 62 88 268 129 301 32 26 156
82 183 82 15 0 30 5 33 10 3 6 17 10 30 10 13 0 34 5 47 10 80 35 562 52 676
23z m1867 -327 l60 -11 7 -85 c20 -246 99 -400 242 -472 54 -27 67 -30 119
-24 87 9 148 52 177 124 7 18 21 37 30 42 13 7 22 32 30 82 7 40 19 95 26 122
8 27 14 65 14 83 0 28 4 33 23 33 97 -1 503 11 548 15 l56 7 16 -54 c9 -29 19
-96 23 -148 7 -120 7 -107 -6 -283 -10 -153 -17 -197 -29 -197 -4 0 -17 -17
-29 -38 -36 -65 -196 -208 -291 -260 -47 -26 -97 -51 -111 -55 -273 -89 -529
-90 -765 -2 -51 19 -99 35 -107 35 -17 0 -60 44 -78 80 -35 67 -85 305 -110
524 -14 118 -6 447 12 487 11 25 14 26 47 16 20 -5 63 -15 96 -21z m2024 -695
c30 -11 70 -33 90 -49 20 -16 50 -36 66 -46 32 -18 75 -76 75 -100 0 -25 -199
-206 -227 -206 -4 0 -14 -6 -22 -13 -45 -38 -254 -80 -344 -70 -45 5 -139 38
-172 60 -29 19 -79 16 -109 -8 -14 -11 -26 -25 -26 -30 0 -25 -56 -129 -105
-193 -102 -135 -254 -225 -468 -275 -61 -14 -143 -14 -225 0 -71 13 -152 44
-152 59 0 6 -8 10 -18 10 -22 0 -121 59 -171 101 -86 74 -261 308 -261 350 0
18 10 15 93 -29 110 -59 190 -85 315 -102 107 -15 269 -9 352 13 253 67 420
155 561 296 48 47 99 95 113 106 54 40 152 96 176 101 14 4 52 17 85 30 55 22
71 23 190 20 101 -3 142 -8 184 -25z m-2152 -203 c-3 -8 -6 -5 -6 6 -1 11 2
17 5 13 3 -3 4 -12 1 -19z m-129 -1349 c-2 -6 -8 -11 -13 -11 -6 -1 -26 -8
-45 -16 -32 -13 -33 -13 -20 3 23 28 86 47 78 24z m-1104 -481 c-8 -13 -31 -9
-37 6 -4 9 1 16 11 18 18 4 34 -11 26 -24z m6436 -966 c30 -8 91 -31 135 -52
108 -50 290 -188 273 -206 -20 -19 -472 -75 -523 -64 -5 1 -53 3 -105 5 -128
5 -200 18 -301 57 -32 12 -43 56 -19 79 29 30 212 131 270 150 14 4 50 17 80
28 64 23 114 24 190 3z m-2950 -574 c40 -1 172 -57 185 -78 7 -12 -92 -222
-122 -259 -18 -23 -27 -24 -109 -24 -222 1 -387 20 -459 53 -22 10 -49 19 -59
21 -12 3 -23 16 -28 34 -9 33 0 43 94 112 56 41 208 113 239 113 13 0 37 9 53
19 23 16 42 18 110 14 44 -2 88 -4 96 -5z"/>
<path d="M3100 6599 c0 -5 5 -7 10 -4 6 3 10 8 10 11 0 2 -4 4 -10 4 -5 0 -10
-5 -10 -11z"/>
<path d="M4070 7060 c-13 -8 -12 -10 3 -10 9 0 17 5 17 10 0 12 -1 12 -20 0z"/>
<path d="M4250 6919 c0 -6 6 -9 14 -6 8 3 17 1 19 -6 2 -7 8 -8 13 -4 5 4 2
12 -6 17 -20 13 -40 12 -40 -1z"/>
<path d="M2080 5659 c-8 -5 -25 -9 -37 -9 -45 0 -148 -52 -185 -94 -48 -53
-50 -78 -3 -42 110 84 243 110 339 66 40 -18 189 -112 206 -130 3 -3 15 -14
28 -24 17 -15 22 -16 22 -4 0 21 -121 141 -182 180 -82 52 -160 76 -188 57z"/>
<path d="M2265 5143 c-11 -2 -30 -6 -42 -9 -68 -14 -79 -189 -25 -415 17 -75
39 -156 48 -180 8 -24 30 -96 49 -159 72 -251 287 -661 537 -1027 94 -137 172
-221 264 -283 l74 -49 72 6 c40 3 81 10 91 15 58 30 64 178 16 383 -17 72 -36
144 -43 160 -8 17 -16 46 -20 65 -4 19 -18 62 -31 95 -12 33 -28 85 -35 115
-7 30 -26 84 -43 120 -16 36 -37 83 -47 105 -30 71 -58 128 -100 205 -80 146
-103 185 -111 191 -5 3 -22 32 -39 65 -17 32 -46 79 -64 104 -19 25 -35 49
-35 53 -1 13 -183 228 -253 300 -81 82 -210 151 -263 140z"/>
<path d="M1775 5042 c-21 -14 -43 -59 -75 -152 -25 -73 -33 -115 -35 -180 -2
-47 -8 -139 -14 -205 -13 -148 -14 -448 -1 -535 5 -36 12 -123 16 -195 6 -135
22 -241 51 -335 15 -47 18 -51 23 -30 5 20 9 13 19 -35 34 -164 69 -230 138
-266 43 -22 43 -22 81 -3 40 21 76 81 86 145 42 259 46 537 15 979 -24 335
-25 342 -54 469 -41 172 -74 256 -122 307 -36 37 -49 44 -80 44 -21 0 -43 -4
-48 -8z m-78 -814 c-3 -8 -6 -5 -6 6 -1 11 2 17 5 13 3 -3 4 -12 1 -19z"/>
</g>
</svg>
